<svg enable-background="new 0 0 512 512" viewBox="0 0 512 512" xmlns="http://www.w3.org/2000/svg" width="22px" height="18px"><path d="m469.333 64h-426.666c-23.532 0-42.667 19.135-42.667 42.667v298.667c0 23.531 19.135 42.666 42.667 42.666h426.667c23.531 0 42.666-19.135 42.666-42.667v-298.666c0-23.532-19.135-42.667-42.667-42.667zm-426.666 21.333h426.667c1.572 0 2.957.573 4.432.897-36.939 33.807-159.423 145.859-202.286 184.478-3.354 3.021-8.76 6.625-15.479 6.625s-12.125-3.604-15.49-6.635c-42.859-38.613-165.35-150.671-202.283-184.466 1.478-.324 2.866-.899 4.439-.899zm-21.334 320v-298.666c0-2.09.63-3.986 1.194-5.896 28.272 25.876 113.736 104.06 169.152 154.453-55.236 47.447-140.722 128.495-169.219 155.669-.503-1.814-1.127-3.588-1.127-5.56zm448 21.334h-426.666c-1.704 0-3.219-.594-4.81-.974 29.447-28.072 115.477-109.586 169.742-156.009 7.074 6.417 13.536 12.268 18.63 16.858 8.792 7.938 19.083 12.125 29.771 12.125s20.979-4.188 29.76-12.115c5.096-4.592 11.563-10.448 18.641-16.868 54.268 46.418 140.286 127.926 169.742 156.009-1.591.38-3.104.974-4.81.974zm21.334-21.334c0 1.971-.624 3.746-1.126 5.56-28.508-27.188-113.984-108.227-169.219-155.668 55.418-50.393 140.869-128.57 169.151-154.456.564 1.91 1.194 3.807 1.194 5.897z"/></svg>