<svg enable-background="new 0 0 129 129" viewBox="0 0 129 129" xmlns="http://www.w3.org/2000/svg" fill="#9068be" width="20px" height="20px"><path d="m119.2 114.3h-109.4c-2.3 0-4.1 1.9-4.1 4.1s1.9 4.1 4.1 4.1h109.5c2.3 0 4.1-1.9 4.1-4.1s-1.9-4.1-4.2-4.1z"/><path d="m5.7 78-.1 19.5c0 1.1.4 2.2 1.2 3s1.8 1.2 2.9 1.2l19.4-.1c1.1 0 2.1-.4 2.9-1.2l67-67c1.6-1.6 1.6-4.2 0-5.9l-19.2-19.4c-1.6-1.6-4.2-1.6-5.9 0l-13.4 13.5-53.6 53.5c-.7.8-1.2 1.8-1.2 2.9zm71.2-61.1 13.5 13.5-7.6 7.6-13.5-13.5zm-62.9 62.9 49.4-49.4 13.5 13.5-49.4 49.3-13.6.1z"/></svg>